PathFileType	4	(X/Y/Z)	C:\Users\WrightLab\Desktop\Jo\P4V115.trc
DataRate	CameraRate	NumFrames	NumMarkers	Units	OrigDataRate	OrigDataStartFrame	OrigNumFrames
100.00	100.00	       14	19	mm	100.00	558	       637
Frame#	Time	Headset_Front			Headset_Back			Headset_Left			Headset_Right			Left_Shoulder			Right_Shoulder			Sternum			C7			Left Elbow			Right Elbow			Left Wrist			Right Wrist			Left ASIS			Right ASIS			S2			Left Knee			Right Knee			Left Ankle			Right Ankle			
		X1	Y1	Z1	X2	Y2	Z2	X3	Y3	Z3	X4	Y4	Z4	X5	Y5	Z5	X6	Y6	Z6	X7	Y7	Z7	X8	Y8	Z8	X9	Y9	Z9	X10	Y10	Z10	X11	Y11	Z11	X12	Y12	Z12	X13	Y13	Z13	X14	Y14	Z14	X15	Y15	Z15	X16	Y16	Z16	X17	Y17	Z17	X18	Y18	Z18	X19	Y19	Z19	

558	5.570	-70.98190	1753.80725	2273.04834	-141.00269	1762.08435	2141.08740							128.92783	1557.79846	2143.44165	-162.87085	1573.08716	2041.30994	-44.89996	1507.12671	2197.49121				226.30896	1209.80872	2240.26953	-297.38455	1222.58411	2015.02747	89.40314	1007.58136	2430.84399	-333.69485	956.55310	2161.68433	101.81098	1073.52625	2225.95337	-219.16960	1067.43628	2138.71631				128.06084	588.77313	2147.26831	-238.18199	599.39801	2221.81152	123.05943	108.84771	1951.76147				
559	5.580	-75.40209	1753.47083	2278.11938	-145.66197	1761.83313	2146.97119							124.39895	1557.04248	2149.22852	-166.81703	1571.69934	2045.37170	-49.77497	1506.76514	2203.19531				222.45602	1209.03638	2245.20557	-301.69507	1221.59363	2021.82202	87.00244	1005.26843	2435.54297	-337.65948	956.50720	2171.04688	98.34403	1072.33130	2232.17651	-223.31577	1066.88403	2145.90479				126.59351	587.12329	2153.10278	-242.54478	598.64166	2228.96143	122.74475	110.73518	1953.27905				
560	5.590	-79.49516	1752.90015	2283.01782	-149.74013	1761.70300	2151.29712							119.27701	1557.38708	2155.94336	-171.38966	1570.77209	2051.39355	-54.09116	1506.37769	2208.48486				218.68703	1208.40356	2249.38013	-306.43506	1220.11938	2028.81067	84.93143	1003.15295	2439.58203	-340.39566	956.70148	2179.58203	94.59012	1072.08252	2239.53906	-227.46303	1066.83289	2153.04834				123.88534	587.81378	2159.58716	-245.96758	597.47766	2235.57935	123.32414	112.11039	1954.54541				
561	5.600	-83.81192	1752.54150	2287.98584	-154.65300	1761.62427	2157.29419							114.62779	1556.87878	2161.02832	-176.09152	1570.29858	2056.73291	-58.99952	1506.74023	2214.60669				215.01677	1208.51453	2254.69897	-311.12155	1218.87512	2035.20129	83.63059	1000.12909	2442.77344	-344.02979	956.55078	2188.59229	91.37595	1071.27502	2245.74170	-231.77339	1067.12097	2160.48340				121.16641	587.52887	2165.92358	-249.02545	596.71802	2241.29663	123.01478	113.79280	1955.14343				
562	5.610	-88.37004	1752.36853	2292.82104	-159.07617	1762.19385	2161.60449							110.24171	1557.01941	2165.99634	-180.47456	1568.91968	2059.47632	-63.92264	1506.51538	2219.69287				211.47870	1208.66992	2259.86890	-315.61835	1218.12830	2041.17688	81.63665	997.96643	2446.79785	-347.72482	956.58282	2196.78833	87.07410	1070.72131	2253.08154	-236.05090	1067.48401	2168.36328				118.88122	587.85156	2173.13843	-251.83543	595.86554	2246.84424	122.57602	116.66444	1956.53967				
563	5.620	-93.37037	1752.71729	2297.99268	-163.57501	1761.92322	2166.59497							105.80420	1557.03296	2170.42285	-185.11794	1569.09399	2065.18579	-68.43193	1507.11255	2224.64795				207.56831	1208.89465	2264.88379	-320.13330	1217.45801	2047.51563	81.02279	994.83081	2448.97290	-351.38852	957.22784	2204.96582	83.04669	1070.51880	2259.80322	-240.71666	1067.96692	2176.04297				116.94343	587.42871	2179.25415	-254.62987	595.61206	2251.46118	122.41579	118.44817	1956.53418				
564	5.630	-97.76298	1753.06287	2302.45044	-168.02925	1762.62866	2170.76123							100.85451	1557.69006	2175.66113	-189.17743	1568.85034	2070.01123	-73.34278	1508.27014	2229.88110				203.31442	1209.33508	2268.92920	-324.34918	1217.15417	2054.63916	80.11913	991.51764	2451.60718	-355.06149	958.06732	2214.61694	78.61351	1070.23486	2266.70825	-244.71094	1068.69153	2182.83081				113.84850	588.67365	2188.02368	-258.44315	595.64282	2256.88794	121.99155	121.97275	1958.48499				
565	5.640	-102.76704	1753.45300	2307.48804	-172.81973	1762.81543	2175.62744							96.38791	1558.61804	2180.62329	-193.95558	1568.33655	2073.75293	-77.73119	1509.10474	2235.53540				199.02217	1210.49475	2274.08008	-328.81863	1216.65869	2061.96069	79.23972	988.62170	2454.30981	-358.45737	958.64514	2222.77124	73.62629	1071.16956	2274.54761	-249.16968	1069.65771	2190.43359				111.60872	589.10608	2197.08203	-262.30411	596.10565	2262.70142	122.19975	125.49846	1960.94653				
566	5.650	-106.95109	1753.61768	2311.17407	-177.31462	1763.54346	2179.65747							92.11703	1559.87817	2185.92505	-198.41655	1568.38586	2078.62305	-82.40779	1510.43665	2240.48022				195.54436	1211.34131	2277.90747	-333.21115	1216.90430	2067.62378	78.84134	985.71545	2456.25220	-362.20746	959.69354	2230.27563	69.12222	1070.73706	2281.52734	-253.55664	1070.95740	2197.04028				108.17004	589.78845	2205.18091	-266.79114	596.65509	2267.18262	122.04873	128.99179	1962.70740				
567	5.660	-111.53511	1754.18188	2315.36621	-182.04480	1764.46069	2184.14551							87.69305	1561.34058	2191.06030	-201.86118	1568.53918	2082.64526	-86.63463	1511.36047	2244.99951				191.58818	1212.50891	2282.58618	-337.96069	1217.44458	2075.44775	78.84682	982.80261	2457.77051	-365.68848	960.46521	2238.12451	64.77693	1071.17029	2287.97314	-258.47089	1072.75330	2204.69580				105.98970	590.40442	2215.76758	-271.43903	597.69275	2272.29053	121.14293	132.71756	1964.05713				
568	5.670	-115.94815	1754.84888	2319.76758	-187.03699	1764.81030	2189.23706							83.40509	1562.32227	2195.56250	-206.71503	1568.94092	2086.68848	-91.15334	1513.06433	2249.68994				187.77293	1214.15063	2287.20654	-342.70822	1217.87109	2081.33496	78.80978	979.80957	2459.16455	-369.20309	962.20618	2246.85742	60.00252	1071.27051	2295.03955	-262.69974	1074.22498	2210.82983				101.51749	590.24994	2224.20947	-276.39014	598.67407	2276.09277	121.13230	136.72145	1966.85364				
569	5.680	-120.72324	1755.86401	2324.05249	-191.34056	1766.13489	2193.00342							78.37344	1564.20715	2200.20972	-211.26143	1569.33521	2091.42163	-95.54365	1514.64905	2254.26196				183.76889	1215.29932	2290.99658	-347.39853	1217.94141	2088.09082	78.73260	977.17847	2460.49658	-372.54526	963.45538	2254.88208	55.18071	1071.83276	2301.80469	-267.55658	1076.33435	2218.00659				99.21555	590.86890	2235.50513	-281.41763	599.11621	2279.47095	120.75852	141.14575	1969.05225				
570	5.690	-125.19787	1756.40393	2327.78442	-195.61366	1766.91748	2196.63086							74.23452	1565.12842	2204.07422	-214.79977	1569.82153	2095.74536	-99.85789	1515.90247	2259.65137				180.34048	1216.58362	2294.78027	-352.21564	1218.63501	2095.24536	79.01582	974.75696	2461.91138	-376.17883	964.68164	2262.74170	50.33153	1072.81934	2308.70337	-272.34650	1077.52234	2224.36938				94.22446	589.44684	2245.93018	-285.46429	599.66919	2282.75171	119.41393	147.24847	1973.23889				
571	5.700	-129.44804	1757.11719	2332.04419	-200.20302	1767.73303	2200.57642							69.88495	1566.64746	2208.67480	-219.39380	1570.06995	2100.62354	-104.22823	1517.30396	2264.53882				177.07957	1218.23523	2298.63501	-356.81628	1219.18835	2101.81470	79.58624	971.95557	2462.65430	-379.65741	966.02435	2270.46509	46.24536	1072.59326	2313.95703	-277.12424	1079.36304	2230.71509				91.03020	590.49976	2259.42896	-288.22223	600.18701	2285.53882	118.20580	152.80495	1975.84192				
